<svg xmlns="http://www.w3.org/2000/svg" width="152" height="16" viewBox="0 0 152 16">
  <g id="logo" transform="translate(8102 14945)">
    <rect id="사각형_1961" data-name="사각형 1961" width="152" height="16" transform="translate(-8102 -14945)" fill="#a0a0a0" opacity="0"/>
    <path id="패스_1365" data-name="패스 1365" d="M1.48,0h2.6V-5.74h6.74V0h2.6V-13.6h-2.6V-8H4.08v-5.6H1.48ZM15.94-5.04h5.84V-7.08H15.94ZM30.46.28a6.765,6.765,0,0,0,6.1-3.34L34.62-4.5a4.462,4.462,0,0,1-4.1,2.36c-2.64,0-4.3-2.02-4.3-4.66s1.66-4.66,4.3-4.66a4.462,4.462,0,0,1,4.1,2.36l1.94-1.44a6.765,6.765,0,0,0-6.1-3.34A6.79,6.79,0,0,0,23.54-6.8,6.79,6.79,0,0,0,30.46.28ZM44.6.28A6.79,6.79,0,0,0,51.52-6.8a6.79,6.79,0,0,0-6.92-7.08A6.79,6.79,0,0,0,37.68-6.8,6.79,6.79,0,0,0,44.6.28Zm0-11.74c2.62,0,4.24,2.02,4.24,4.66S47.22-2.14,44.6-2.14,40.36-4.16,40.36-6.8,41.98-11.46,44.6-11.46ZM53.7,0h2.6V-9.28L63.72,0h2.26V-13.6h-2.6v9.28l-7.4-9.28H53.7ZM75.08.28a6.765,6.765,0,0,0,6.1-3.34L79.24-4.5a4.462,4.462,0,0,1-4.1,2.36c-2.64,0-4.3-2.02-4.3-4.66s1.66-4.66,4.3-4.66a4.462,4.462,0,0,1,4.1,2.36l1.94-1.44a6.765,6.765,0,0,0-6.1-3.34A6.79,6.79,0,0,0,68.16-6.8,6.79,6.79,0,0,0,75.08.28Zm8-.28h2.6V-13.6h-2.6Zm5.56,0H98.2V-2.28H91.24V-5.74h6V-8h-6v-3.32H98.2V-13.6H88.64Zm20.72,0h3.12V-.06l-4.4-5.62a3.808,3.808,0,0,0,2.98-3.86c0-2.52-1.88-4.06-4.5-4.06h-6.04V0h2.6V-5.5h2.16Zm-6.24-7.76v-3.56h3.16c1.38,0,2.1.66,2.1,1.78s-.72,1.78-2.1,1.78ZM120.08.28a10.409,10.409,0,0,0,6.02-2V-7.64h-5.66v2.26h3.06v2.32a6.017,6.017,0,0,1-3.36.92,4.337,4.337,0,0,1-4.36-4.66,4.333,4.333,0,0,1,4.34-4.66,4.463,4.463,0,0,1,4.08,2.28l1.94-1.46a6.772,6.772,0,0,0-6.06-3.24A6.827,6.827,0,0,0,113.1-6.8,6.827,6.827,0,0,0,120.08.28ZM128.54,0h9.56V-2.28h-6.96V-5.74h6V-8h-6v-3.32h6.96V-13.6h-9.56Z" transform="translate(-8102.48 -14930.12)" fill="#fff"/>
  </g>
</svg>
