<?xml version="1.0" encoding="UTF-8"?> <svg xmlns="http://www.w3.org/2000/svg" width="72" height="56" viewBox="0 0 72 56" fill="none"><g clip-path="url(#clip0_952_2298)"><path d="M35 25H23" stroke="white" stroke-width="2"></path><path d="M42.2 32.2V44.2" stroke="white" stroke-width="2"></path><path d="M49.4 25H61.4" stroke="white" stroke-width="2"></path><path d="M42.2 17.8V5.80005" stroke="white" stroke-width="2"></path><path d="M42.2 32.2C42.2 28.224 45.424 25 49.4 25C45.424 25 42.2 21.776 42.2 17.8C42.2 21.776 38.976 25 35 25C38.976 25 42.2 28.224 42.2 32.2Z" fill="white" stroke="white" stroke-width="2"></path><path d="M37.112 19.9121L28.624 11.4241" stroke="white" stroke-width="2"></path><path d="M37.112 30.0881L28.624 38.5761" stroke="white" stroke-width="2"></path><path d="M47.288 30.0881L55.776 38.5761" stroke="white" stroke-width="2"></path><path d="M47.288 19.9121L55.776 11.4241" stroke="white" stroke-width="2"></path><path d="M29.136 6.80805C27.208 6.16005 25.144 5.80005 23 5.80005C12.4 5.80005 3.8 14.4 3.8 25C3.8 35.6 12.4 44.2 23 44.2C25.144 44.2 27.208 43.8401 29.136 43.1921" stroke="white" stroke-width="2"></path></g><defs><clipPath id="clip0_952_2298"><rect width="58.4" height="40" fill="white" transform="translate(3 5)"></rect></clipPath></defs></svg> 